<?xml version="1.0" encoding="utf-8"?>
<!-- Generator: Adobe Illustrator 22.0.1, SVG Export Plug-In . SVG Version: 6.00 Build 0)  -->
<svg version="1.1" id="Layer_1" xmlns="http://www.w3.org/2000/svg" xmlns:xlink="http://www.w3.org/1999/xlink" x="0px" y="0px"
	 viewBox="0 0 256 256" style="enable-background:new 0 0 256 256;" xml:space="preserve">
<style type="text/css">
	.st0{fill:#3A312A;}
	.st1{fill:#D6DF58;}
	.st2{fill:#87796F;}
	.st3{fill:#B9C239;}
	.st4{fill:#EF6D7A;}
	.st5{fill:#FCE8CB;}
	.st6{fill:#D5DE58;}
	.st7{fill:#D34E5C;}
	.st8{fill:#695B51;}
	.st9{fill:#8AC6DD;}
	.st10{fill:#D7E057;}
	.st11{fill:#B8C136;}
	.st12{fill:#F16C7A;}
	.st13{fill:#8AC2D9;}
	.st14{fill:#F7E3C7;}
	.st15{fill:#8AC3DA;}
	.st16{fill:#6DA3BC;}
	.st17{fill:#6A5C52;}
	.st18{fill:#D5DC57;}
	.st19{fill:#F6E2C6;}
	.st20{fill:#DBC7AA;}
	.st21{fill:#CE4E61;}
	.st22{fill:#FAE6CA;}
	.st23{fill:#8AC5DC;}
	.st24{fill:#DDC9AC;}
	.st25{fill:#DECAAD;}
	.st26{fill:#6CA6BE;}
	.st27{fill:#F8E4C8;}
	.st28{fill:#89C4DB;}
	.st29{fill:#ED6E7A;}
	.st30{fill:#D24E5C;}
	.st31{fill:#6DA4BD;}
	.st32{fill:#EB6E7A;}
	.st33{fill:#68A7BB;}
	.st34{fill:#B9BC37;}
	.st35{fill:#CC4E61;}
	.st36{fill:#6CA8BF;}
	.st37{fill-rule:evenodd;clip-rule:evenodd;fill:#D5DE58;}
	.st38{fill:#EA6D7A;}
	.st39{fill:#F4E0C4;}
	.st40{fill-rule:evenodd;clip-rule:evenodd;fill:#D6DF58;}
	.st41{fill-rule:evenodd;clip-rule:evenodd;fill:#F16C7A;}
	.st42{fill:#F3DEC3;}
	.st43{fill-rule:evenodd;clip-rule:evenodd;fill:#FAE6CA;}
	.st44{fill:#F59689;}
	.st45{fill-rule:evenodd;clip-rule:evenodd;fill:#F8E4C8;}
	.st46{fill-rule:evenodd;clip-rule:evenodd;fill:#FCE8CB;}
	.st47{fill:#F5978A;}
	.st48{fill:#D4DB56;}
	.st49{fill-rule:evenodd;clip-rule:evenodd;fill:#D4DA55;}
	.st50{fill-rule:evenodd;clip-rule:evenodd;fill:#EB6E7A;}
	.st51{fill:#68A6B9;}
	.st52{fill-rule:evenodd;clip-rule:evenodd;fill:#D5DC57;}
	.st53{fill:#8AC1D8;}
	.st54{fill:#F5E1C5;}
	.st55{fill:#D4D752;}
	.st56{fill:#D3D751;}
	.st57{fill:#D4D853;}
	.st58{fill:#E96C7A;}
	.st59{fill:#D4DA55;}
	.st60{fill:#8BC0D7;}
	.st61{fill:#87796F;stroke:#3A312A;stroke-width:3;stroke-linecap:round;stroke-linejoin:round;stroke-miterlimit:10;}
</style>
<g>
	<g>
		<g>
			<path class="st2" d="M222.394,16.135H33.605c-9.447,0-17.105,7.658-17.105,17.106V163.53c0,9.447,7.658,17.105,17.105,17.105
				h188.789c9.447,0,17.106-7.658,17.106-17.105V33.241C239.5,23.794,231.842,16.135,222.394,16.135z"/>
		</g>
	</g>
	<g>
		<g>
			<path class="st0" d="M222.394,14.636H33.605C23.346,14.636,15,22.982,15,33.241V163.53c0,10.259,8.346,18.605,18.605,18.605
				h188.789c10.259,0,18.606-8.347,18.606-18.605V33.241C241,22.982,232.653,14.636,222.394,14.636z M238,163.53
				c0,8.604-7.001,15.605-15.606,15.605H33.605C25,179.136,18,172.135,18,163.53V33.241c0-8.604,7-15.605,15.605-15.605h188.789
				c8.605,0,15.606,7.001,15.606,15.605V163.53z"/>
		</g>
	</g>
	<g>
		<g>
			<path class="st1" d="M214.969,28.635H41.031c-6.583,0-11.92,5.337-11.92,11.92v115.66c0,6.583,5.337,11.92,11.92,11.92h173.938
				c6.583,0,11.92-5.336,11.92-11.92V40.555C226.889,33.972,221.552,28.635,214.969,28.635z"/>
		</g>
	</g>
	<g>
		<g>
			<path class="st0" d="M214.969,27.136H99.798c-0.829,0-1.5,0.672-1.5,1.5s0.671,1.5,1.5,1.5h115.171
				c5.745,0,10.42,4.675,10.42,10.42v115.66c0,5.745-4.675,10.42-10.42,10.42H41.031c-5.746,0-10.42-4.675-10.42-10.42V40.556
				c0-5.745,4.674-10.42,10.42-10.42h45.17c0.829,0,1.5-0.672,1.5-1.5s-0.671-1.5-1.5-1.5h-45.17c-7.4,0-13.42,6.021-13.42,13.42
				v115.66c0,7.399,6.02,13.42,13.42,13.42h173.938c7.399,0,13.42-6.021,13.42-13.42V40.556
				C228.389,33.156,222.368,27.136,214.969,27.136z"/>
		</g>
	</g>
	<g>
		<g>
			<rect x="113.688" y="180.635" class="st2" width="28.625" height="35.593"/>
		</g>
	</g>
	<g>
		<g>
			<path class="st0" d="M142.313,179.136h-28.625c-0.829,0-1.5,0.672-1.5,1.5v35.593c0,0.828,0.671,1.5,1.5,1.5h28.625
				c0.828,0,1.5-0.672,1.5-1.5v-35.593C143.813,179.808,143.141,179.136,142.313,179.136z M140.813,214.729h-25.625v-32.593h25.625
				V214.729z"/>
		</g>
	</g>
	<g>
		<g>
			<path class="st2" d="M148.296,216.229h-40.593c-12.927,0-23.407,10.479-23.407,23.407h87.406
				C171.703,226.708,161.224,216.229,148.296,216.229z"/>
		</g>
	</g>
	<g>
		<g>
			<path class="st0" d="M148.296,214.729h-40.592c-13.733,0-24.907,11.173-24.907,24.907c0,0.828,0.671,1.5,1.5,1.5h37.584
				c0.829,0,1.5-0.672,1.5-1.5s-0.671-1.5-1.5-1.5H85.848c0.773-11.383,10.281-20.407,21.856-20.407h40.592
				c11.575,0,21.083,9.024,21.856,20.407h-34.701c-0.828,0-1.5,0.672-1.5,1.5s0.672,1.5,1.5,1.5h36.252c0.828,0,1.5-0.672,1.5-1.5
				C173.203,225.901,162.03,214.729,148.296,214.729z"/>
		</g>
	</g>
	<g>
		<g>
			<path class="st1" d="M47.671,203.469c-0.974,11.564-13.025,13.39-13.025,13.39c10.346,0.487,12.925,14.059,12.925,14.059
				c0.221-9.677,13.321-14.202,13.321-14.202C51.079,216.129,47.671,203.469,47.671,203.469z"/>
		</g>
	</g>
	<g>
		<g>
			<path class="st0" d="M60.982,215.219c-8.604-0.515-11.831-12.024-11.863-12.141c-0.191-0.702-0.865-1.161-1.583-1.102
				c-0.725,0.066-1.298,0.642-1.359,1.367c-0.86,10.215-11.313,11.963-11.755,12.031c-0.763,0.116-1.313,0.791-1.273,1.561
				c0.04,0.771,0.657,1.385,1.427,1.421c9.028,0.426,11.499,12.719,11.523,12.844c0.137,0.711,0.759,1.217,1.472,1.217
				c0.042,0,0.084-0.002,0.126-0.005c0.764-0.064,1.357-0.693,1.375-1.46c0.195-8.509,12.192-12.777,12.313-12.819
				c0.675-0.234,1.092-0.914,0.994-1.622C62.28,215.802,61.696,215.261,60.982,215.219z M47.417,225.564
				c-1.356-3.131-3.709-6.908-7.587-8.877c2.931-1.404,6.409-3.913,8.202-8.272c1.551,3.071,4.199,6.88,8.334,8.723
				C53.358,218.777,49.443,221.543,47.417,225.564z"/>
		</g>
	</g>
	<g>
		<g>
			<path class="st1" d="M25.972,220.45c-0.689,8.179-9.212,9.471-9.212,9.471c7.318,0.344,9.142,9.944,9.142,9.944
				c0.156-6.845,9.422-10.045,9.422-10.045C28.383,229.404,25.972,220.45,25.972,220.45z"/>
		</g>
	</g>
	<g>
		<g>
			<path class="st0" d="M35.414,228.322c-5.766-0.345-7.972-8.186-7.994-8.265c-0.19-0.702-0.856-1.162-1.582-1.102
				c-0.726,0.065-1.299,0.643-1.36,1.368c-0.579,6.87-7.646,8.066-7.942,8.113c-0.763,0.116-1.313,0.791-1.273,1.561
				c0.04,0.771,0.657,1.385,1.428,1.421c6.035,0.284,7.723,8.644,7.739,8.726c0.135,0.712,0.759,1.22,1.472,1.22
				c0.042,0,0.083-0.002,0.125-0.005c0.765-0.063,1.358-0.693,1.376-1.461c0.131-5.708,8.332-8.633,8.413-8.661
				c0.677-0.234,1.094-0.913,0.996-1.622C36.713,228.906,36.128,228.364,35.414,228.322z M25.829,235.117
				c-0.924-1.886-2.339-3.947-4.447-5.28c1.856-1.041,3.697-2.629,4.87-4.916c1.057,1.874,2.654,3.955,4.941,5.224
				C29.344,231.245,27.206,232.885,25.829,235.117z"/>
		</g>
	</g>
	<g>
		<g>
			<path class="st1" d="M25.972,193.792c-0.689,8.179-9.212,9.47-9.212,9.47c7.318,0.345,9.142,9.944,9.142,9.944
				c0.156-6.844,9.422-10.045,9.422-10.045C28.383,202.747,25.972,193.792,25.972,193.792z"/>
		</g>
	</g>
	<g>
		<g>
			<path class="st0" d="M35.414,201.665c-5.766-0.345-7.972-8.187-7.994-8.266c-0.19-0.701-0.856-1.171-1.582-1.102
				c-0.726,0.065-1.299,0.643-1.36,1.368c-0.579,6.871-7.646,8.066-7.942,8.113c-0.763,0.116-1.313,0.791-1.273,1.561
				c0.04,0.771,0.657,1.385,1.427,1.421c6.036,0.284,7.724,8.645,7.739,8.727c0.135,0.712,0.759,1.22,1.472,1.22
				c0.042,0,0.083-0.002,0.125-0.005c0.765-0.063,1.358-0.693,1.376-1.461c0.131-5.709,8.332-8.633,8.413-8.661
				c0.676-0.233,1.094-0.913,0.996-1.622C36.713,202.249,36.128,201.707,35.414,201.665z M25.829,208.459
				c-0.924-1.885-2.34-3.947-4.447-5.279c1.856-1.041,3.697-2.63,4.87-4.916c1.057,1.873,2.654,3.954,4.941,5.224
				C29.344,204.588,27.205,206.228,25.829,208.459z"/>
		</g>
	</g>
	<g>
		<g>
			<path class="st11" d="M214.97,30.135h-15c5.74,0,10.42,4.67,10.42,10.42v115.66c0,5.75-4.68,10.42-10.42,10.42h15
				c5.74,0,10.42-4.67,10.42-10.42V40.555C225.39,34.805,220.71,30.135,214.97,30.135z"/>
		</g>
	</g>
	<g>
		<g>
			<path class="st2" d="M172.62,116.671c-3.607,0-6.532,2.924-6.532,6.531c0,3.607,2.924,6.532,6.532,6.532s6.531-2.924,6.531-6.532
				C179.152,119.595,176.228,116.671,172.62,116.671z"/>
		</g>
	</g>
	<g>
		<g>
			<path class="st0" d="M172.62,115.171c-4.429,0-8.031,3.603-8.031,8.031s3.603,8.032,8.031,8.032c4.429,0,8.031-3.604,8.031-8.032
				S177.049,115.171,172.62,115.171z M172.62,128.234c-2.774,0-5.031-2.258-5.031-5.032s2.257-5.031,5.031-5.031
				c2.774,0,5.031,2.257,5.031,5.031S175.394,128.234,172.62,128.234z"/>
		</g>
	</g>
	<g>
		<g>
			<path class="st2" d="M193.028,116.671c-3.607,0-6.532,2.924-6.532,6.531c0,3.607,2.924,6.532,6.532,6.532
				s6.532-2.924,6.532-6.532C199.559,119.595,196.635,116.671,193.028,116.671z"/>
		</g>
	</g>
	<g>
		<g>
			<path class="st0" d="M193.027,115.171c-4.429,0-8.031,3.603-8.031,8.031s3.602,8.032,8.031,8.032
				c4.429,0,8.032-3.604,8.032-8.032S197.456,115.171,193.027,115.171z M193.027,128.234c-2.774,0-5.031-2.258-5.031-5.032
				s2.257-5.031,5.031-5.031c2.774,0,5.032,2.257,5.032,5.031S195.802,128.234,193.027,128.234z"/>
		</g>
	</g>
	<g>
		<g>
			<path class="st12" d="M202.779,79.238h-47.456l7.508,29.703h31.618c0.877,0,1.654-0.565,1.925-1.399l8.33-25.655
				C205.129,80.579,204.154,79.238,202.779,79.238z"/>
		</g>
	</g>
	<g>
		<g>
			<path class="st0" d="M205.63,79.19c-0.67-0.923-1.709-1.452-2.851-1.452h-47.456c-0.463,0-0.899,0.214-1.184,0.578
				c-0.284,0.365-0.384,0.841-0.271,1.289l7.508,29.702c0.168,0.666,0.767,1.133,1.454,1.133h31.618
				c1.532,0,2.879-0.979,3.352-2.436l8.33-25.654C206.483,81.265,206.301,80.113,205.63,79.19z M203.277,81.424l-8.33,25.655
				c-0.07,0.216-0.271,0.361-0.498,0.361h-30.45l-6.749-26.702h45.529c0.232,0,0.365,0.135,0.424,0.216
				C203.262,81.034,203.35,81.202,203.277,81.424z"/>
		</g>
	</g>
	<g>
		<g>
			<path class="st0" d="M202.024,113.853h-35.913l-12.153-48.077c-0.225-0.888-1.023-1.51-1.939-1.51h-13.933c-1.104,0-2,0.896-2,2
				s0.896,2,2,2h12.375l12.153,48.077c0.225,0.888,1.023,1.51,1.939,1.51h37.471c1.105,0,2-0.896,2-2
				S203.129,113.853,202.024,113.853z"/>
		</g>
	</g>
	<g>
		<g>
			
				<ellipse transform="matrix(0.3827 -0.9239 0.9239 0.3827 -34.3982 144.5194)" class="st13" cx="90.945" cy="98" rx="39.75" ry="39.75"/>
		</g>
	</g>
	<g>
		<g>
			<path class="st0" d="M90.945,56.75c-22.745,0-41.25,18.505-41.25,41.25s18.505,41.25,41.25,41.25
				c22.745,0,41.25-18.505,41.25-41.25S113.69,56.75,90.945,56.75z M90.945,136.25c-21.091,0-38.25-17.159-38.25-38.25
				s17.159-38.25,38.25-38.25c21.091,0,38.25,17.159,38.25,38.25S112.037,136.25,90.945,136.25z"/>
		</g>
	</g>
	<g>
		<g>
			<ellipse class="st13" cx="90.945" cy="98" rx="26.578" ry="39.75"/>
		</g>
	</g>
	<g>
		<g>
			<path class="st0" d="M90.945,56.75c-15.482,0-28.078,18.505-28.078,41.25s12.596,41.25,28.078,41.25
				c15.482,0,28.078-18.505,28.078-41.25S106.428,56.75,90.945,56.75z M90.945,136.25c-13.828,0-25.078-17.159-25.078-38.25
				s11.25-38.25,25.078-38.25c13.828,0,25.078,17.159,25.078,38.25S104.773,136.25,90.945,136.25z"/>
		</g>
	</g>
	<g>
		<g>
			<ellipse class="st13" cx="90.945" cy="98" rx="10.307" ry="39.75"/>
		</g>
	</g>
	<g>
		<g>
			<path class="st0" d="M90.945,56.75c-7.752,0-11.807,20.751-11.807,41.25s4.056,41.25,11.807,41.25
				c7.751,0,11.807-20.751,11.807-41.25S98.696,56.75,90.945,56.75z M90.945,136.25c-3.678,0-8.807-14.552-8.807-38.25
				s5.129-38.25,8.807-38.25c3.677,0,8.807,14.552,8.807,38.25S94.623,136.25,90.945,136.25z"/>
		</g>
	</g>
	<g>
		<g>
			<path class="st0" d="M90.945,69.922c-22.745,0-41.25,12.596-41.25,28.078s18.505,28.078,41.25,28.078
				c22.745,0,41.25-12.596,41.25-28.078S113.69,69.922,90.945,69.922z M90.945,123.078c-21.091,0-38.25-11.25-38.25-25.078
				s17.159-25.078,38.25-25.078c21.091,0,38.25,11.25,38.25,25.078S112.037,123.078,90.945,123.078z"/>
		</g>
	</g>
	<g>
		<g>
			<path class="st0" d="M90.945,86.193c-20.499,0-41.25,4.056-41.25,11.807s20.751,11.807,41.25,11.807
				c20.498,0,41.25-4.056,41.25-11.807S111.444,86.193,90.945,86.193z M90.945,106.807c-23.698,0-38.25-5.129-38.25-8.807
				s14.552-8.807,38.25-8.807s38.25,5.129,38.25,8.807S114.644,106.807,90.945,106.807z"/>
		</g>
	</g>
</g>
</svg>
